<svg xmlns="http://www.w3.org/2000/svg" viewBox="0 0 290 100">
  <!-- fuselage -->
  <path d="M 5,50 C 28,34 55,28 95,26 L 228,26 C 252,26 268,36 276,50 C 268,64 252,74 228,74 L 95,74 C 55,72 28,66 5,50 Z" fill="#e9c987"/>
  <!-- main wing (swept back delta) -->
  <path d="M 82,64 L 210,70 L 252,96 L 67,80 Z" fill="#e9c987" opacity=".78"/>
  <!-- horizontal stabilizer -->
  <path d="M 226,42 L 260,28 L 270,44 Z" fill="#e9c987"/>
  <!-- vertical stabilizer -->
  <path d="M 244,26 L 260,8 L 272,28 Z" fill="#e9c987"/>
  <!-- engine pod under wing -->
  <path d="M 116,70 L 186,74 C 196,74 203,77 203,81 C 203,85 196,87 186,87 L 116,83 C 106,83 100,80 100,76 C 100,72 106,70 116,70 Z" fill="#e9c987" opacity=".82"/>
  <!-- cockpit window strip -->
  <path d="M 18,44 C 20,36 30,32 42,32 L 70,32 L 70,40 L 42,40 C 34,40 26,44 22,48 Z" fill="#0b0f20" opacity=".35"/>
</svg>
